#!OML:ASF H:\SpeedWalk\Project 1\Capture day 2\Session 1\male.ASF
:FULLY-SPECIFIED
:DEGREES
28
root -8.094567 17.654656 -21.446321 2.328687 2.884898 3.320267
lowerback 6.806212 -0.389209 -4.078210 
upperback -0.632068 -0.766760 2.026936 
thorax -4.399430 -0.257495 4.489526 
lowerneck -13.733621 0.839612 1.923336 
upperneck 18.040922 1.642367 -4.490911 
head 7.892023 0.476093 -1.628378 
rclavicle 0.000000 0.000000 
rhumerus -35.921796 -30.047348 -71.096076 
rradius 22.203920 
rwrist 8.257813 
rhand -12.108186 -10.256531 
rfingers 0.000000 
rthumb 13.952673 -39.768346 
lclavicle 0.000000 0.000000 
lhumerus -40.983922 6.066024 86.803124 
lradius 34.030342 
lwrist -15.525901 
lhand -4.796762 15.482703 
lfingers 0.000000 
lthumb 20.988669 44.366945 
rfemur -27.997839 -0.354462 18.973474 
rtibia 34.079155 
rfoot -8.550049 -6.703053 
rtoes 8.406747 
lfemur -3.624193 -3.822581 -22.727396 
ltibia 52.438079 
lfoot 8.577199 -16.082141 
ltoes -9.760467 
29
root -8.105913 17.663022 -21.378251 2.246719 2.884311 2.957243
lowerback 6.847750 -0.361574 -3.712866 
upperback -0.622758 -0.696608 2.123468 
thorax -4.423331 -0.229801 4.376820 
lowerneck -13.736226 0.822653 1.924987 
upperneck 18.083347 1.623129 -4.504549 
head 7.905985 0.465374 -1.635620 
rclavicle 0.000000 0.000000 
rhumerus -35.939900 -29.989927 -71.076006 
rradius 22.122360 
rwrist 8.346185 
rhand -12.087293 -10.249353 
rfingers 0.000000 
rthumb 13.972789 -39.759797 
lclavicle 0.000000 0.000000 
lhumerus -41.017478 5.811169 86.920663 
lradius 34.133023 
lwrist -15.508071 
lhand -4.636980 15.460256 
lfingers 0.000000 
lthumb 21.142187 44.327446 
rfemur -27.564303 -0.303177 19.445732 
rtibia 33.888057 
rfoot -8.595798 -6.726707 
rtoes 8.792746 
lfemur -4.515084 -3.734278 -22.209009 
ltibia 53.929557 
lfoot 9.112442 -16.437592 
ltoes -7.587492 
30
root -8.116434 17.670786 -21.312292 2.161426 2.868668 2.591113
lowerback 6.904233 -0.327791 -3.340448 
upperback -0.612559 -0.617269 2.219322 
thorax -4.454566 -0.197682 4.258426 
lowerneck -13.733444 0.804212 1.923127 
upperneck 18.118401 1.601613 -4.514260 
head 7.916402 0.453853 -1.641164 
rclavicle 0.000000 0.000000 
rhumerus -35.933814 -29.909090 -71.075408 
rradius 22.044653 
rwrist 8.425760 
rhand -12.069820 -10.236458 
rfingers 0.000000 
rthumb 13.989650 -39.745739 
lclavicle 0.000000 0.000000 
lhumerus -41.035587 5.562576 87.038655 
lradius 34.245014 
lwrist -15.496258 
lhand -4.495787 15.429541 
lfingers 0.000000 
lthumb 21.277809 44.281453 
rfemur -27.130446 -0.268497 19.920570 
rtibia 33.682522 
rfoot -8.638840 -6.731411 
rtoes 9.096624 
lfemur -5.416224 -3.619420 -21.695633 
ltibia 55.428327 
lfoot 9.245362 -16.585038 
ltoes -5.928296 
31
root -8.126858 17.678480 -21.246581 2.075742 2.851258 2.224618
lowerback 6.962468 -0.293286 -2.967201 
upperback -0.602255 -0.536852 2.315097 
thorax -4.486661 -0.165045 4.139365 
lowerneck -13.730030 0.785598 1.920855 
upperneck 18.152590 1.579829 -4.523510 
head 7.926404 0.442238 -1.646508 
rclavicle 0.000000 0.000000 
rhumerus -35.924891 -29.825506 -71.077092 
rradius 21.967398 
rwrist 8.504303 
rhand -12.052748 -10.222891 
rfingers 0.000000 
rthumb 14.006130 -39.731034 
lclavicle 0.000000 0.000000 
lhumerus -41.051885 5.314718 87.156701 
lradius 34.358097 
lwrist -15.485150 
lhand -4.356773 15.397855 
lfingers 0.000000 
lthumb 21.411333 44.234700 
rfemur -26.696551 -0.235763 20.395710 
rtibia 33.475294 
rfoot -8.681565 -6.733892 
rtoes 9.390873 
lfemur -6.318567 -3.501447 -21.182844 
ltibia 56.927953 
lfoot 9.331103 -16.708091 
ltoes -4.329350 
32
root -8.136676 17.685615 -21.182292 1.984593 2.820368 1.870185
lowerback 7.034263 -0.253602 -2.604447 
upperback -0.590199 -0.449972 2.406541 
thorax -4.524065 -0.129053 4.020993 
lowerneck -13.722791 0.765896 1.916036 
upperneck 18.181812 1.556388 -4.529940 
head 7.933972 0.430031 -1.650632 
rclavicle 0.000000 0.000000 
rhumerus -35.896509 -29.722784 -71.094579 
rradius 21.892180 
rwrist 8.576917 
rhand -12.041201 -10.213288 
rfingers 0.000000 
rthumb 14.017246 -39.720645 
lclavicle 0.000000 0.000000 
lhumerus -41.057592 5.082426 87.269277 
lradius 34.474753 
lwrist -15.482307 
lhand -4.238402 15.354151 
lfingers 0.000000 
lthumb 21.525030 44.178025 
rfemur -26.262067 -0.216269 20.855780 
rtibia 33.267208 
rfoot -8.729530 -6.714781 
rtoes 9.628116 
lfemur -7.219798 -3.358507 -20.689182 
ltibia 58.424496 
lfoot 9.106723 -16.640916 
ltoes -3.331683 
